<svg xmlns="http://www.w3.org/2000/svg" viewBox="0 0 1600 500" width="100%" height="100%" preserveAspectRatio="xMidYMid meet">
  <defs>
    <!-- Background Gradients -->
    <linearGradient id="bg-grad-light" x1="0%" y1="0%" x2="100%" y2="100%">
      <stop offset="0%" stop-color="#F8FAFC" stop-opacity="1"/>
      <stop offset="60%" stop-color="#F1F5F9" stop-opacity="1"/>
      <stop offset="100%" stop-color="#E2E8F0" stop-opacity="1"/>
    </linearGradient>
    <radialGradient id="glow-left-light" cx="15%" cy="30%" r="60%">
      <stop offset="0%" stop-color="#0EA5E9" stop-opacity="0.08"/>
      <stop offset="100%" stop-color="#0EA5E9" stop-opacity="0"/>
    </radialGradient>
    <radialGradient id="glow-right-light" cx="85%" cy="70%" r="60%">
      <stop offset="0%" stop-color="#6366F1" stop-opacity="0.08"/>
      <stop offset="100%" stop-color="#6366F1" stop-opacity="0"/>
    </radialGradient>
    
    <!-- Text Gradients -->
    <linearGradient id="name-grad-light" x1="0%" y1="0%" x2="100%" y2="0%">
      <stop offset="0%" stop-color="#0F172A" stop-opacity="1"/>
      <stop offset="100%" stop-color="#334155" stop-opacity="1"/>
    </linearGradient>
    <linearGradient id="highlight-grad-light" x1="0%" y1="0%" x2="100%" y2="0%">
      <stop offset="0%" stop-color="#0284C7" stop-opacity="1"/>
      <stop offset="100%" stop-color="#4F46E5" stop-opacity="1"/>
    </linearGradient>

    <!-- Glass Chip Gradient -->
    <linearGradient id="chip-grad-light" x1="0%" y1="0%" x2="100%" y2="100%">
      <stop offset="0%" stop-color="#FFFFFF" stop-opacity="0.75"/>
      <stop offset="100%" stop-color="#F1F5F9" stop-opacity="0.4"/>
    </linearGradient>
    
    <!-- Pattern for Dot Grid -->
    <pattern id="dot-grid-light" x="0" y="0" width="24" height="24" patternUnits="userSpaceOnUse">
      <circle cx="2" cy="2" r="1" fill="#0EA5E9" fill-opacity="0.08"/>
    </pattern>

    <!-- Drop Shadow Filter for Terminal -->
    <filter id="terminal-shadow-light" x="-10%" y="-10%" width="120%" height="120%">
      <feDropShadow dx="0" dy="16" stdDeviation="24" flood-color="#000000" flood-opacity="0.12"/>
    </filter>

    <!-- Noise Texture Filter -->
    <filter id="noise-filter-light" x="0%" y="0%" width="100%" height="100%">
      <feTurbulence type="fractalNoise" baseFrequency="0.65" numOctaves="3" stitchTiles="stitch"/>
      <feColorMatrix type="matrix" values="1 0 0 0 0  0 1 0 0 0  0 0 1 0 0  0 0 0 0.02 0"/>
    </filter>
  </defs>

  <!-- 1. Background Layer -->
  <rect width="1600" height="500" fill="url(#bg-grad-light)"/>
  
  <!-- 2. Ambient Glows -->
  <circle cx="150" cy="150" r="450" fill="url(#glow-left-light)"/>
  <circle cx="1400" cy="350" r="550" fill="url(#glow-right-light)"/>

  <!-- 3. Dot Grid Overlay -->
  <rect width="1600" height="500" fill="url(#dot-grid-light)"/>

  <!-- 4. Noise Texture Overlay -->
  <rect width="1600" height="500" filter="url(#noise-filter-light)" pointer-events="none"/>

  <!-- 5. Neural Connections Background Graphics -->
  <g stroke="#0284C7" stroke-opacity="0.04" stroke-width="1.2" fill="none">
    <line x1="120" y1="80" x2="250" y2="50"/>
    <line x1="250" y1="50" x2="350" y2="120"/>
    <line x1="120" y1="80" x2="180" y2="160"/>
    <line x1="180" y1="160" x2="320" y2="220"/>
    <line x1="350" y1="120" x2="320" y2="220"/>
    <line x1="320" y1="220" x2="220" y2="300"/>
    <line x1="220" y1="300" x2="100" y2="260"/>
  </g>
  <g fill="#0284C7" fill-opacity="0.15">
    <circle cx="120" cy="80" r="2.5"/>
    <circle cx="250" cy="50" r="3.5"/>
    <circle cx="350" cy="120" r="2.5"/>
    <circle cx="180" cy="160" r="2.5"/>
    <circle cx="320" cy="220" r="3.5" fill="#4F46E5" fill-opacity="0.2"/>
    <circle cx="220" cy="300" r="2.5"/>
    <circle cx="100" cy="260" r="2.5"/>
  </g>

  <!-- Left Side Branding & Typography -->
  <!-- Name -->
  <text x="80" y="85" font-family="system-ui, -apple-system, sans-serif" font-size="40" font-weight="800" fill="url(#name-grad-light)" letter-spacing="1.5">K. AVINASH</text>
  
  <!-- Professional Identity -->
  <text x="80" y="118" font-family="system-ui, -apple-system, sans-serif" font-size="14" font-weight="700" fill="#0284C7" fill-opacity="0.9" letter-spacing="2">AI ENGINEER &#8226; SOFTWARE DEVELOPER &#8226; MACHINE LEARNING</text>
  
  <!-- Tagline -->
  <text x="80" y="155" font-family="system-ui, -apple-system, sans-serif" font-size="20" font-weight="400" fill="#334155" fill-opacity="0.9" letter-spacing="0.5">Engineering intelligent software</text>
  <text x="80" y="182" font-family="system-ui, -apple-system, sans-serif" font-size="20" font-weight="400" fill="#334155" fill-opacity="0.9" letter-spacing="0.5">that transforms data into</text>
  <text x="80" y="209" font-family="system-ui, -apple-system, sans-serif" font-size="20" font-weight="700" fill="url(#highlight-grad-light)" letter-spacing="0.5">real-world impact.</text>

  <!-- Achievement Ribbon -->
  <g transform="translate(80, 222)">
    <rect x="0" y="0" width="670" height="28" rx="6" fill="#0284C7" fill-opacity="0.02" stroke="#0284C7" stroke-opacity="0.08" stroke-width="1"/>
    <path d="M4 2 H12 V5 C12 7 10.5 8.5 8 8.5 C5.5 8.5 4 7 4 5 Z M2 3.5 C2 2.5 4 2.5 4 4.5 M14 3.5 C14 2.5 12 2.5 12 4.5 M8 8.5 V11 M5 11 H11" stroke-width="1.2" stroke="#0284C7" stroke-opacity="0.6" fill="none" transform="translate(10, 6)"/>
    <text x="36" y="18" font-family="system-ui, -apple-system, sans-serif" font-size="11" font-weight="500" fill="#334155" fill-opacity="0.8" letter-spacing="0.8">Google Cloud Arcade Champion Tier  &#8226;  NPTEL Silver Medal  &#8226;  Top 10 State-Level Hackathon Finalist</text>
  </g>

  <!-- Tech Stack Chips -->
  <g font-family="system-ui, -apple-system, sans-serif" font-size="11" font-weight="500" fill="#334155">
    <!-- Row 1: Y=260 -->
    <!-- Python -->
    <g transform="translate(80, 260)">
      <rect width="85" height="26" rx="13" fill="url(#chip-grad-light)" stroke="#0284C7" stroke-opacity="0.12" stroke-width="1"/>
      <g transform="translate(8, 7)" fill="#0284C7">
        <path d="M6 0.5 A 2.5 2.5 0 0 0 3.5 3 L 3.5 4.5 L 6 4.5 L 6 5 L 2.5 5 A 2 2 0 0 0 0.5 7 A 2 2 0 0 0 2.5 9 L 3.5 9 L 3.5 8 A 2 2 0 0 1 5.5 6 L 7.5 6 A 2 2 0 0 0 9.5 4 L 9.5 3 A 2.5 2.5 0 0 0 7 0.5 L 6 0.5 Z M 6 11.5 A 2.5 2.5 0 0 0 8.5 9 L 8.5 7.5 L 6 7.5 L 6 7 L 9.5 7 A 2 2 0 0 0 11.5 5 A 2 2 0 0 0 9.5 3 L 8.5 3 L 8.5 4 A 2 2 0 1 1 6.5 6 L 4.5 6 A 2 2 0 0 0 2.5 8 L 2.5 9 A 2.5 2.5 0 0 0 5 11.5 L 6 11.5 Z"/>
      </g>
      <text x="24" y="17">Python</text>
    </g>

    <!-- Java -->
    <g transform="translate(175, 260)">
      <rect width="75" height="26" rx="13" fill="url(#chip-grad-light)" stroke="#0284C7" stroke-opacity="0.12" stroke-width="1"/>
      <g transform="translate(8, 7)" fill="none" stroke="#0284C7" stroke-width="1.2" stroke-linecap="round" stroke-linejoin="round">
        <path d="M2 9 C2 10.5 3.5 11 6 11 C8.5 11 10 10.5 10 9 L10 4 L2 4 Z"/>
        <path d="M10 5.5 C11 5.5 11.5 6 11.5 7 C11.5 8 11 8.5 10 8.5"/>
        <path d="M4.5 1 Q5.2 2.5 4.5 3 M7.5 1 Q8.2 2.5 7.5 3"/>
      </g>
      <text x="24" y="17">Java</text>
    </g>

    <!-- FastAPI -->
    <g transform="translate(260, 260)">
      <rect width="90" height="26" rx="13" fill="url(#chip-grad-light)" stroke="#0284C7" stroke-opacity="0.12" stroke-width="1"/>
      <g transform="translate(8, 7)" fill="#0284C7">
        <path d="M7 0.5 L2 6.5 L5 6.5 L3.5 11.5 L9 5.5 L6 5.5 Z"/>
      </g>
      <text x="24" y="17">FastAPI</text>
    </g>

    <!-- React -->
    <g transform="translate(360, 260)">
      <rect width="80" height="26" rx="13" fill="url(#chip-grad-light)" stroke="#0284C7" stroke-opacity="0.12" stroke-width="1"/>
      <g transform="translate(8, 7)" fill="none" stroke="#0284C7" stroke-width="1">
        <ellipse cx="6" cy="6" rx="5.5" ry="1.8" transform="rotate(30 6 6)"/>
        <ellipse cx="6" cy="6" rx="5.5" ry="1.8" transform="rotate(90 6 6)"/>
        <ellipse cx="6" cy="6" rx="5.5" ry="1.8" transform="rotate(150 6 6)"/>
        <circle cx="6" cy="6" r="1" fill="#0284C7"/>
      </g>
      <text x="24" y="17">React</text>
    </g>

    <!-- SQL -->
    <g transform="translate(450, 260)">
      <rect width="70" height="26" rx="13" fill="url(#chip-grad-light)" stroke="#0284C7" stroke-opacity="0.12" stroke-width="1"/>
      <g transform="translate(8, 7)" fill="none" stroke="#0284C7" stroke-width="1.2" stroke-linecap="round" stroke-linejoin="round">
        <ellipse cx="6" cy="3" rx="4.5" ry="1.8"/>
        <path d="M1.5 3 V6.5 C1.5 7.5 3.5 8 6 8 C8.5 8 10.5 7.5 10.5 6.5 V3"/>
        <path d="M1.5 6.5 V10 C1.5 11 3.5 11.5 6 11.5 C8.5 11.5 10.5 11 10.5 10 V6.5"/>
      </g>
      <text x="24" y="17">SQL</text>
    </g>

    <!-- Git -->
    <g transform="translate(530, 260)">
      <rect width="65" height="26" rx="13" fill="url(#chip-grad-light)" stroke="#0284C7" stroke-opacity="0.12" stroke-width="1"/>
      <g transform="translate(8, 7)" fill="none" stroke="#0284C7" stroke-width="1.2">
        <circle cx="3.5" cy="3.5" r="1.5"/>
        <circle cx="3.5" cy="8.5" r="1.5"/>
        <circle cx="8.5" cy="6" r="1.5"/>
        <path d="M3.5 5 V7 M3.5 5 Q5.5 5 8.5 6"/>
      </g>
      <text x="24" y="17">Git</text>
    </g>

    <!-- AI -->
    <g transform="translate(605, 260)">
      <rect width="55" height="26" rx="13" fill="url(#chip-grad-light)" stroke="#0284C7" stroke-opacity="0.12" stroke-width="1"/>
      <g transform="translate(8, 7)" fill="none" stroke="#0284C7" stroke-width="1.2">
        <rect x="3" y="3" width="6" height="6" rx="1"/>
        <path d="M1 4.5 H3 M1 7.5 H3 M9 4.5 H11 M9 7.5 H11 M4.5 1 V3 M7.5 1 V3 M4.5 9 V11 M7.5 9 V11"/>
      </g>
      <text x="24" y="17">AI</text>
    </g>

    <!-- Row 2: Y=295 -->
    <!-- LangChain -->
    <g transform="translate(80, 295)">
      <rect width="110" height="26" rx="13" fill="url(#chip-grad-light)" stroke="#0284C7" stroke-opacity="0.12" stroke-width="1"/>
      <g transform="translate(8, 7)" fill="#0284C7">
        <rect x="1" y="3.5" width="6" height="3" rx="1.5" transform="rotate(-45 4 5)" fill-opacity="0.7"/>
        <rect x="3.5" y="6" width="6" height="3" rx="1.5" transform="rotate(-45 6.5 7.5)"/>
      </g>
      <text x="24" y="17">LangChain</text>
    </g>

    <!-- LangGraph -->
    <g transform="translate(200, 295)">
      <rect width="110" height="26" rx="13" fill="url(#chip-grad-light)" stroke="#0284C7" stroke-opacity="0.12" stroke-width="1"/>
      <g transform="translate(8, 7)" fill="none" stroke="#0284C7" stroke-width="1.2">
        <circle cx="3" cy="9" r="1.5" fill="#0284C7"/>
        <circle cx="9" cy="3" r="1.5" fill="#0284C7"/>
        <circle cx="9" cy="9" r="1.5" fill="#0284C7"/>
        <path d="M4.5 7.5 L7.5 4.5 M4.5 9 H7.5 M9 4.5 V7.5"/>
      </g>
      <text x="24" y="17">LangGraph</text>
    </g>

    <!-- Docker -->
    <g transform="translate(320, 295)">
      <rect width="90" height="26" rx="13" fill="url(#chip-grad-light)" stroke="#0284C7" stroke-opacity="0.12" stroke-width="1"/>
      <g transform="translate(8, 7)" fill="#0284C7">
        <rect x="1" y="7" width="2.5" height="2.5" rx="0.5"/>
        <rect x="4.5" y="7" width="2.5" height="2.5" rx="0.5"/>
        <rect x="8" y="7" width="2.5" height="2.5" rx="0.5"/>
        <rect x="2.8" y="4" width="2.5" height="2.5" rx="0.5"/>
        <rect x="6.2" y="4" width="2.5" height="2.5" rx="0.5"/>
        <path d="M1 10.5 C3.5 11.2 7.5 11.2 10.5 10.5" stroke="#0284C7" stroke-width="1" fill="none"/>
      </g>
      <text x="24" y="17">Docker</text>
    </g>

    <!-- MongoDB -->
    <g transform="translate(420, 295)">
      <rect width="95" height="26" rx="13" fill="url(#chip-grad-light)" stroke="#0284C7" stroke-opacity="0.12" stroke-width="1"/>
      <g transform="translate(8, 7)" fill="none" stroke="#0284C7" stroke-width="1.2">
        <path d="M6 1 C6 1 9.5 3.5 9.5 6.5 C9.5 9 8 10.5 6 11.2 C4 10.5 2.5 9 2.5 6.5 C2.5 3.5 6 1 Z" fill="#0284C7" fill-opacity="0.15"/>
        <path d="M6 1 V11.2"/>
      </g>
      <text x="24" y="17">MongoDB</text>
    </g>

    <!-- NLP -->
    <g transform="translate(525, 295)">
      <rect width="70" height="26" rx="13" fill="url(#chip-grad-light)" stroke="#0284C7" stroke-opacity="0.12" stroke-width="1"/>
      <g transform="translate(8, 7)" fill="none" stroke="#0284C7" stroke-width="1.2">
        <path d="M1 6 A 4.5 4.5 0 0 1 11 6 C11 8.2 8.5 9.8 6 9.8 L3.5 11.2 V9.8 A 4.5 4.5 0 0 1 1 6 Z"/>
        <path d="M3.5 5 H8.5 M3.5 7 H6.5"/>
      </g>
      <text x="24" y="17">NLP</text>
    </g>

    <!-- GitHub -->
    <g transform="translate(605, 295)">
      <rect width="90" height="26" rx="13" fill="url(#chip-grad-light)" stroke="#0284C7" stroke-opacity="0.12" stroke-width="1"/>
      <g transform="translate(8, 7)" fill="#0284C7">
        <path d="M6 0.5 C2.7 0.5 0 3.2 0 6.5 C0 9.1 1.7 11.4 4.1 12.2 C4.4 12.3 4.5 12.1 4.5 11.9 C4.5 11.7 4.5 11.1 4.5 10.4 C2.8 10.7 2.5 9.7 2.5 9.7 C2.2 9.1 1.8 9.0 1.8 9.0 C1.2 8.6 1.8 8.6 1.8 8.6 C2.4 8.7 2.7 9.2 2.7 9.2 C3.3 10.1 4.1 9.9 4.4 9.7 C4.5 9.3 4.6 9.0 4.8 8.8 C3.5 8.7 2.1 8.2 2.1 6.0 C2.1 5.4 2.3 4.9 2.7 4.5 C2.6 4.3 2.4 3.8 2.7 3.1 C2.7 3.1 3.2 2.9 4.3 3.7 C4.8 3.5 5.4 3.4 6 3.4 C6.6 3.4 7.2 3.5 7.7 3.7 C8.8 2.9 9.3 3.1 9.3 3.1 C9.6 3.8 9.4 4.3 9.3 4.5 C9.7 4.9 9.9 5.4 9.9 6.0 C9.9 8.2 8.5 8.7 7.2 8.8 C7.4 9.0 7.6 9.4 7.6 10.0 C7.6 11.0 7.6 11.7 7.6 11.9 C7.6 12.1 7.7 12.3 8.0 12.2 C10.4 11.4 12 9.1 12 6.5 C12 3.2 9.3 0.5 6 0.5 Z"/>
      </g>
      <text x="24" y="17">GitHub</text>
    </g>

    <!-- Row 3: Y=330 -->
    <!-- Machine Learning -->
    <g transform="translate(80, 330)">
      <rect width="150" height="26" rx="13" fill="url(#chip-grad-light)" stroke="#0284C7" stroke-opacity="0.12" stroke-width="1"/>
      <g transform="translate(8, 7)" fill="none" stroke="#0284C7" stroke-width="1.2">
        <circle cx="2.5" cy="6" r="1.2" fill="#0284C7"/>
        <circle cx="6" cy="3" r="1.2" fill="#0284C7"/>
        <circle cx="6" cy="9" r="1.2" fill="#0284C7"/>
        <circle cx="9.5" cy="6" r="1.2" fill="#0284C7"/>
        <path d="M3.5 5.5 L5 3.8 M3.5 6.5 L5 8.2 M7 3.8 L8.5 5.5 M7 8.2 L8.5 5.5"/>
      </g>
      <text x="24" y="17">Machine Learning</text>
    </g>

    <!-- PostgreSQL -->
    <g transform="translate(240, 330)">
      <rect width="115" height="26" rx="13" fill="url(#chip-grad-light)" stroke="#0284C7" stroke-opacity="0.12" stroke-width="1"/>
      <g transform="translate(8, 7)" fill="none" stroke="#0284C7" stroke-width="1.2">
        <path d="M6 1.5 C2.5 1.5 2 4.5 2 6 C2 9.5 5.5 10.5 6 10.5 C6.5 10.5 10 9.5 10 6 C10 4.5 9.5 1.5 6 1.5 Z"/>
        <path d="M2 5 H10 M6 1.5 V10.5"/>
      </g>
      <text x="24" y="17">PostgreSQL</text>
    </g>

    <!-- Data Science -->
    <g transform="translate(365, 330)">
      <rect width="120" height="26" rx="13" fill="url(#chip-grad-light)" stroke="#0284C7" stroke-opacity="0.12" stroke-width="1"/>
      <g transform="translate(8, 7)" fill="none" stroke="#0284C7" stroke-width="1.2" stroke-linecap="round" stroke-linejoin="round">
        <rect x="1" y="8" width="2" height="3" rx="0.5"/>
        <rect x="4.5" y="5.5" width="2" height="5.5" rx="0.5"/>
        <rect x="8" y="3" width="2" height="8" rx="0.5"/>
        <path d="M2 7.5 L5.5 5 L9 2.5 L10.5 4" fill="none" stroke-width="1"/>
      </g>
      <text x="24" y="17">Data Science</text>
    </g>
  </g>

  <!-- Metrics Cards -->
  <g transform="translate(80, 375)">
    <!-- Card 1 -->
    <g transform="translate(0, 0)">
      <rect width="210" height="85" rx="16" fill="#FFFFFF" fill-opacity="0.6" stroke="#E2E8F0" stroke-opacity="0.8" stroke-width="1"/>
      <text x="20" y="38" font-family="system-ui, -apple-system, sans-serif" font-size="28" font-weight="700" fill="#0F172A">600+</text>
      <text x="20" y="62" font-family="system-ui, -apple-system, sans-serif" font-size="13" font-weight="500" fill="#475569">Coding Problems</text>
    </g>
    <!-- Card 2 -->
    <g transform="translate(230, 0)">
      <rect width="210" height="85" rx="16" fill="#FFFFFF" fill-opacity="0.6" stroke="#E2E8F0" stroke-opacity="0.8" stroke-width="1"/>
      <text x="20" y="38" font-family="system-ui, -apple-system, sans-serif" font-size="28" font-weight="700" fill="#0F172A">25+</text>
      <text x="20" y="62" font-family="system-ui, -apple-system, sans-serif" font-size="13" font-weight="500" fill="#475569">Projects</text>
    </g>
    <!-- Card 3 -->
    <g transform="translate(460, 0)">
      <rect width="210" height="85" rx="16" fill="#FFFFFF" fill-opacity="0.6" stroke="#E2E8F0" stroke-opacity="0.8" stroke-width="1"/>
      <text x="20" y="38" font-family="system-ui, -apple-system, sans-serif" font-size="28" font-weight="700" fill="#0F172A">4</text>
      <text x="20" y="62" font-family="system-ui, -apple-system, sans-serif" font-size="13" font-weight="500" fill="#475569">Industry Internships</text>
    </g>
  </g>

  <!-- Right Side: macOS Sonoma Terminal -->
  <g filter="url(#terminal-shadow-light)">
    <!-- Window Body -->
    <rect x="780" y="60" width="740" height="380" rx="12" fill="#FFFFFF" fill-opacity="0.75" stroke="#E2E8F0" stroke-width="1.5" stroke-opacity="0.9"/>
    
    <!-- Title Bar -->
    <path d="M780.5 72 C780.5 65.5 785.5 60.5 792 60.5 H1508 C1514.5 60.5 1519.5 65.5 1519.5 72 V96 H780.5 Z" fill="#F8FAFC" fill-opacity="0.9"/>
    
    <!-- Window Controls -->
    <circle cx="805" cy="78" r="6" fill="#FF5F56"/>
    <circle cx="825" cy="78" r="6" fill="#FFBD2E"/>
    <circle cx="845" cy="78" r="6" fill="#27C93F"/>
    
    <!-- Title Text -->
    <text x="1150" y="82" font-family="SFMono-Regular, Consolas, Menlo, monospace" font-size="13" font-weight="500" fill="#64748B" text-anchor="middle">avinash@github:~</text>
    
    <!-- Monospace Content -->
    <g font-family="SFMono-Regular, Consolas, Menlo, monospace" font-size="14.5" font-weight="500" xml:space="preserve">
      <!-- Command 1 -->
      <text x="810" y="132" fill="#0284C7">$ <tspan fill="#0F172A">whoami</tspan></text>
      
      <!-- Output Line 1 -->
      <text x="810" y="164" fill="#0F172A" font-weight="700">K. Avinash</text>
      
      <!-- Output Line 2 -->
      <text x="810" y="196" fill="#0284C7">AI Engineer</text>
      
      <!-- Output Line 3 -->
      <text x="810" y="228" fill="#475569">Building Intelligent Solutions</text>
      
      <!-- Output Line 4 -->
      <text x="810" y="260" fill="#D97706" fill-opacity="0.9">GitHub : <tspan fill="#2563EB" text-decoration="underline">github.com/Kaja-avinash</tspan></text>
      
      <!-- Next Command line -->
      <text x="810" y="294" fill="#0284C7">$ </text>
    </g>

    <!-- Blinking Cursor -->
    <rect x="830" y="280" width="8" height="16" fill="#0284C7">
      <animate attributeName="opacity" values="1;0;1" dur="1.2s" repeatCount="indefinite"/>
    </rect>
  </g>

  <!-- Heatmap Graphic (Bottom Right Under Terminal) -->
  <g transform="translate(1380, 450)">
    <!-- Column 1 -->
    <rect x="0" y="0" width="8" height="8" rx="1.5" fill="#E2E8F0" fill-opacity="0.6"/>
    <rect x="0" y="11" width="8" height="8" rx="1.5" fill="#9BE9A8" fill-opacity="0.9"/>
    <rect x="0" y="22" width="8" height="8" rx="1.5" fill="#E2E8F0" fill-opacity="0.6"/>
    <rect x="0" y="33" width="8" height="8" rx="1.5" fill="#40C463" fill-opacity="0.9"/>
    
    <!-- Column 2 -->
    <rect x="11" y="0" width="8" height="8" rx="1.5" fill="#E2E8F0" fill-opacity="0.6"/>
    <rect x="11" y="11" width="8" height="8" rx="1.5" fill="#30A14E" fill-opacity="0.9"/>
    <rect x="11" y="22" width="8" height="8" rx="1.5" fill="#9BE9A8" fill-opacity="0.9"/>
    <rect x="11" y="33" width="8" height="8" rx="1.5" fill="#E2E8F0" fill-opacity="0.6"/>
    
    <!-- Column 3 -->
    <rect x="22" y="0" width="8" height="8" rx="1.5" fill="#40C463" fill-opacity="0.9"/>
    <rect x="22" y="11" width="8" height="8" rx="1.5" fill="#E2E8F0" fill-opacity="0.6"/>
    <rect x="22" y="22" width="8" height="8" rx="1.5" fill="#9BE9A8" fill-opacity="0.9"/>
    <rect x="22" y="33" width="8" height="8" rx="1.5" fill="#30A14E" fill-opacity="0.9"/>
    
    <!-- Column 4 -->
    <rect x="33" y="0" width="8" height="8" rx="1.5" fill="#E2E8F0" fill-opacity="0.6"/>
    <rect x="33" y="11" width="8" height="8" rx="1.5" fill="#9BE9A8" fill-opacity="0.9"/>
    <rect x="33" y="22" width="8" height="8" rx="1.5" fill="#E2E8F0" fill-opacity="0.6"/>
    <rect x="33" y="33" width="8" height="8" rx="1.5" fill="#E2E8F0" fill-opacity="0.6"/>
    
    <!-- Column 5 -->
    <rect x="44" y="0" width="8" height="8" rx="1.5" fill="#9BE9A8" fill-opacity="0.9"/>
    <rect x="44" y="11" width="8" height="8" rx="1.5" fill="#40C463" fill-opacity="0.9"/>
    <rect x="44" y="22" width="8" height="8" rx="1.5" fill="#30A14E" fill-opacity="0.9"/>
    <rect x="44" y="33" width="8" height="8" rx="1.5" fill="#216E39" fill-opacity="0.9"/>
    
    <!-- Column 6 -->
    <rect x="55" y="0" width="8" height="8" rx="1.5" fill="#E2E8F0" fill-opacity="0.6"/>
    <rect x="55" y="11" width="8" height="8" rx="1.5" fill="#E2E8F0" fill-opacity="0.6"/>
    <rect x="55" y="22" width="8" height="8" rx="1.5" fill="#9BE9A8" fill-opacity="0.9"/>
    <rect x="55" y="33" width="8" height="8" rx="1.5" fill="#E2E8F0" fill-opacity="0.6"/>
    
    <!-- Column 7 -->
    <rect x="66" y="0" width="8" height="8" rx="1.5" fill="#30A14E" fill-opacity="0.9"/>
    <rect x="66" y="11" width="8" height="8" rx="1.5" fill="#216E39" fill-opacity="0.9"/>
    <rect x="66" y="22" width="8" height="8" rx="1.5" fill="#40C463" fill-opacity="0.9"/>
    <rect x="66" y="33" width="8" height="8" rx="1.5" fill="#E2E8F0" fill-opacity="0.6"/>
    
    <!-- Column 8 -->
    <rect x="77" y="0" width="8" height="8" rx="1.5" fill="#E2E8F0" fill-opacity="0.6"/>
    <rect x="77" y="11" width="8" height="8" rx="1.5" fill="#9BE9A8" fill-opacity="0.9"/>
    <rect x="77" y="22" width="8" height="8" rx="1.5" fill="#E2E8F0" fill-opacity="0.6"/>
    <rect x="77" y="33" width="8" height="8" rx="1.5" fill="#216E39" fill-opacity="0.9"/>
    
    <!-- Column 9 -->
    <rect x="88" y="0" width="8" height="8" rx="1.5" fill="#40C463" fill-opacity="0.9"/>
    <rect x="88" y="11" width="8" height="8" rx="1.5" fill="#E2E8F0" fill-opacity="0.6"/>
    <rect x="88" y="22" width="8" height="8" rx="1.5" fill="#30A14E" fill-opacity="0.9"/>
    <rect x="88" y="33" width="8" height="8" rx="1.5" fill="#E2E8F0" fill-opacity="0.6"/>
    
    <!-- Column 10 -->
    <rect x="99" y="0" width="8" height="8" rx="1.5" fill="#E2E8F0" fill-opacity="0.6"/>
    <rect x="99" y="11" width="8" height="8" rx="1.5" fill="#216E39" fill-opacity="0.9"/>
    <rect x="99" y="22" width="8" height="8" rx="1.5" fill="#E2E8F0" fill-opacity="0.6"/>
    <rect x="99" y="33" width="8" height="8" rx="1.5" fill="#40C463" fill-opacity="0.9"/>
  </g>
</svg>
