<svg xmlns="http://www.w3.org/2000/svg" viewBox="0 0 1600 500" width="1600" height="500" preserveAspectRatio="xMidYMid meet">
  <defs>

    <!-- ══ GRADIENTS ══ -->
    <linearGradient id="bg" x1="0%" y1="0%" x2="100%" y2="100%">
      <stop offset="0%"   stop-color="#020818" stop-opacity="1"/>
      <stop offset="55%"  stop-color="#0A1628" stop-opacity="1"/>
      <stop offset="100%" stop-color="#030712" stop-opacity="1"/>
    </linearGradient>

    <radialGradient id="glowA" cx="18%" cy="28%" r="55%">
      <stop offset="0%"   stop-color="#38BDF8" stop-opacity="0.22"/>
      <stop offset="100%" stop-color="#38BDF8" stop-opacity="0"/>
    </radialGradient>

    <radialGradient id="glowB" cx="82%" cy="72%" r="52%">
      <stop offset="0%"   stop-color="#6366F1" stop-opacity="0.20"/>
      <stop offset="100%" stop-color="#6366F1" stop-opacity="0"/>
    </radialGradient>

    <radialGradient id="glowC" cx="50%" cy="50%" r="60%">
      <stop offset="0%"   stop-color="#0EA5E9" stop-opacity="0.06"/>
      <stop offset="100%" stop-color="#0EA5E9" stop-opacity="0"/>
    </radialGradient>

    <linearGradient id="nameGrad" x1="0%" y1="0%" x2="100%" y2="0%">
      <stop offset="0%"   stop-color="#F8FAFC" stop-opacity="1"/>
      <stop offset="100%" stop-color="#BAC8E0" stop-opacity="1"/>
    </linearGradient>

    <linearGradient id="accentGrad" x1="0%" y1="0%" x2="100%" y2="0%">
      <stop offset="0%"   stop-color="#38BDF8" stop-opacity="1"/>
      <stop offset="100%" stop-color="#818CF8" stop-opacity="1"/>
    </linearGradient>

    <linearGradient id="chipGrad" x1="0%" y1="0%" x2="0%" y2="100%">
      <stop offset="0%"   stop-color="#FFFFFF" stop-opacity="0.07"/>
      <stop offset="100%" stop-color="#FFFFFF" stop-opacity="0.02"/>
    </linearGradient>

    <linearGradient id="cardGrad" x1="0%" y1="0%" x2="0%" y2="100%">
      <stop offset="0%"   stop-color="#FFFFFF" stop-opacity="0.05"/>
      <stop offset="100%" stop-color="#FFFFFF" stop-opacity="0.01"/>
    </linearGradient>

    <linearGradient id="termGrad" x1="0%" y1="0%" x2="0%" y2="100%">
      <stop offset="0%"   stop-color="#0D1929" stop-opacity="0.96"/>
      <stop offset="100%" stop-color="#070E1A" stop-opacity="0.96"/>
    </linearGradient>

    <linearGradient id="termBarGrad" x1="0%" y1="0%" x2="0%" y2="100%">
      <stop offset="0%"   stop-color="#131E30" stop-opacity="1"/>
      <stop offset="100%" stop-color="#0E1826" stop-opacity="1"/>
    </linearGradient>

    <linearGradient id="shimmerGrad" x1="0%" y1="0%" x2="100%" y2="0%">
      <stop offset="0%"   stop-color="#FFFFFF" stop-opacity="0"/>
      <stop offset="40%"  stop-color="#FFFFFF" stop-opacity="0.04"/>
      <stop offset="60%"  stop-color="#FFFFFF" stop-opacity="0.07"/>
      <stop offset="100%" stop-color="#FFFFFF" stop-opacity="0"/>
    </linearGradient>

    <!-- ══ DOT GRID PATTERN ══ -->
    <pattern id="dots" x="0" y="0" width="28" height="28" patternUnits="userSpaceOnUse">
      <circle cx="2" cy="2" r="0.9" fill="#38BDF8" fill-opacity="0.10"/>
    </pattern>

    <!-- ══ DASHED LINE STROKE PATTERN ══ -->
    <pattern id="dashPat" x="0" y="0" width="12" height="1" patternUnits="userSpaceOnUse">
      <rect x="0" y="0" width="7" height="1" fill="#38BDF8"/>
    </pattern>

    <!-- ══ FILTERS ══ -->
    <filter id="termShadow" x="-8%" y="-8%" width="116%" height="116%">
      <feDropShadow dx="0" dy="20" stdDeviation="30" flood-color="#000000" flood-opacity="0.7"/>
    </filter>

    <filter id="glowFilt" x="-20%" y="-20%" width="140%" height="140%">
      <feGaussianBlur in="SourceGraphic" stdDeviation="3" result="blur"/>
      <feMerge><feMergeNode in="blur"/><feMergeNode in="SourceGraphic"/></feMerge>
    </filter>

    <filter id="softBlur" x="-10%" y="-10%" width="120%" height="120%">
      <feGaussianBlur in="SourceGraphic" stdDeviation="8"/>
    </filter>

    <!-- ══ CLIP PATHS ══ -->
    <clipPath id="termClip">
      <rect x="782" y="62" width="736" height="376" rx="11"/>
    </clipPath>

  </defs>

  <!-- ╔══════════════════════════════════════╗ -->
  <!-- ║           BACKGROUND LAYERS          ║ -->
  <!-- ╚══════════════════════════════════════╝ -->

  <rect width="1600" height="500" fill="url(#bg)"/>
  <rect width="1600" height="500" fill="url(#dots)"/>

  <!-- Breathing background glow A -->
  <circle cx="180" cy="160" r="480" fill="url(#glowA)">
    <animate attributeName="r" values="480;520;480" dur="9s" repeatCount="indefinite"/>
    <animate attributeName="opacity" values="1;0.7;1" dur="9s" repeatCount="indefinite"/>
  </circle>

  <!-- Breathing background glow B -->
  <circle cx="1420" cy="340" r="520" fill="url(#glowB)">
    <animate attributeName="r" values="520;560;520" dur="12s" repeatCount="indefinite"/>
    <animate attributeName="opacity" values="1;0.65;1" dur="12s" repeatCount="indefinite"/>
  </circle>

  <!-- Central soft ambient -->
  <circle cx="800" cy="250" r="700" fill="url(#glowC)">
    <animate attributeName="opacity" values="0.6;1;0.6" dur="15s" repeatCount="indefinite"/>
  </circle>

  <!-- ╔══════════════════════════════════════╗ -->
  <!-- ║         NEURAL NETWORK NODES         ║ -->
  <!-- ╚══════════════════════════════════════╝ -->

  <!-- Connection lines (dashed, animated offset) -->
  <g stroke="#38BDF8" stroke-opacity="0.12" stroke-width="1" fill="none" stroke-dasharray="5,6">
    <line x1="95"  y1="80"  x2="240" y2="52">
      <animate attributeName="stroke-dashoffset" values="0;-22;0" dur="5s" repeatCount="indefinite"/>
    </line>
    <line x1="240" y1="52"  x2="360" y2="128">
      <animate attributeName="stroke-dashoffset" values="0;22;0" dur="6s" repeatCount="indefinite"/>
    </line>
    <line x1="95"  y1="80"  x2="170" y2="170">
      <animate attributeName="stroke-dashoffset" values="0;-18;0" dur="7s" repeatCount="indefinite"/>
    </line>
    <line x1="170" y1="170" x2="330" y2="230">
      <animate attributeName="stroke-dashoffset" values="0;22;0" dur="5.5s" repeatCount="indefinite"/>
    </line>
    <line x1="360" y1="128" x2="330" y2="230">
      <animate attributeName="stroke-dashoffset" values="0;-20;0" dur="8s" repeatCount="indefinite"/>
    </line>
    <line x1="330" y1="230" x2="215" y2="310">
      <animate attributeName="stroke-dashoffset" values="0;18;0" dur="6.5s" repeatCount="indefinite"/>
    </line>
    <line x1="215" y1="310" x2="90"  y2="268">
      <animate attributeName="stroke-dashoffset" values="0;-24;0" dur="7s" repeatCount="indefinite"/>
    </line>
    <line x1="90"  y1="268" x2="95"  y2="80">
      <animate attributeName="stroke-dashoffset" values="0;20;0" dur="9s" repeatCount="indefinite"/>
    </line>
  </g>

  <!-- Neural node dots -->
  <g filter="url(#glowFilt)">
    <circle cx="95" cy="80" r="3" fill="#38BDF8" fill-opacity="0.7">
      <animate attributeName="cy" values="80;74;80" dur="6s" repeatCount="indefinite"/>
      <animate attributeName="opacity" values="0.7;1;0.7" dur="6s" repeatCount="indefinite"/>
    </circle>
    <circle cx="240" cy="52" r="4" fill="#38BDF8" fill-opacity="0.9">
      <animate attributeName="cy" values="52;46;52" dur="8s" repeatCount="indefinite"/>
      <animate attributeName="cx" values="240;245;240" dur="8s" repeatCount="indefinite"/>
    </circle>
    <circle cx="360" cy="128" r="3" fill="#818CF8" fill-opacity="0.8">
      <animate attributeName="cy" values="128;122;128" dur="7s" repeatCount="indefinite"/>
    </circle>
    <circle cx="170" cy="170" r="2.5" fill="#38BDF8" fill-opacity="0.6">
      <animate attributeName="cy" values="170;176;170" dur="9s" repeatCount="indefinite"/>
    </circle>
    <circle cx="330" cy="230" r="4" fill="#818CF8" fill-opacity="0.85">
      <animate attributeName="cy" values="230;224;230" dur="7.5s" repeatCount="indefinite"/>
      <animate attributeName="cx" values="330;336;330" dur="7.5s" repeatCount="indefinite"/>
    </circle>
    <circle cx="215" cy="310" r="3" fill="#38BDF8" fill-opacity="0.65">
      <animate attributeName="cy" values="310;316;310" dur="8.5s" repeatCount="indefinite"/>
    </circle>
    <circle cx="90" cy="268" r="2.5" fill="#38BDF8" fill-opacity="0.6">
      <animate attributeName="cy" values="268;262;268" dur="6.5s" repeatCount="indefinite"/>
    </circle>
  </g>

  <!-- ╔══════════════════════════════════════╗ -->
  <!-- ║         FLOATING PARTICLES           ║ -->
  <!-- ╚══════════════════════════════════════╝ -->

  <circle cx="420" cy="430" r="1.5" fill="#38BDF8" fill-opacity="0.35">
    <animate attributeName="cy" values="430;400;430" dur="11s" repeatCount="indefinite"/>
    <animate attributeName="opacity" values="0.35;0.7;0.35" dur="11s" repeatCount="indefinite"/>
  </circle>
  <circle cx="540" cy="460" r="1" fill="#818CF8" fill-opacity="0.4">
    <animate attributeName="cy" values="460;435;460" dur="13s" repeatCount="indefinite"/>
    <animate attributeName="opacity" values="0.4;0.8;0.4" dur="13s" repeatCount="indefinite"/>
  </circle>
  <circle cx="650" cy="480" r="1.5" fill="#38BDF8" fill-opacity="0.3">
    <animate attributeName="cy" values="480;455;480" dur="9s" repeatCount="indefinite"/>
    <animate attributeName="opacity" values="0.3;0.6;0.3" dur="9s" repeatCount="indefinite"/>
  </circle>
  <circle cx="700" cy="70"  r="1"   fill="#38BDF8" fill-opacity="0.25">
    <animate attributeName="cy" values="70;55;70" dur="14s" repeatCount="indefinite"/>
    <animate attributeName="opacity" values="0.25;0.55;0.25" dur="14s" repeatCount="indefinite"/>
  </circle>
  <circle cx="500" cy="110" r="1.2" fill="#818CF8" fill-opacity="0.3">
    <animate attributeName="cy" values="110;95;110" dur="10s" repeatCount="indefinite"/>
    <animate attributeName="opacity" values="0.3;0.65;0.3" dur="10s" repeatCount="indefinite"/>
  </circle>
  <circle cx="750" cy="400" r="1"   fill="#38BDF8" fill-opacity="0.35">
    <animate attributeName="cy" values="400;380;400" dur="12s" repeatCount="indefinite"/>
  </circle>

  <!-- ╔══════════════════════════════════════╗ -->
  <!-- ║         LEFT CONTENT PANEL           ║ -->
  <!-- ╚══════════════════════════════════════╝ -->

  <!-- Name -->
  <text x="80" y="86"
        font-family="system-ui,-apple-system,BlinkMacSystemFont,Segoe UI,sans-serif"
        font-size="41" font-weight="800" fill="url(#nameGrad)" letter-spacing="2">K. AVINASH</text>

  <!-- Accent underline bar beneath name -->
  <rect x="80" y="94" width="300" height="1.5" rx="1" fill="url(#accentGrad)" fill-opacity="0.5"/>

  <!-- Identity row -->
  <text x="80" y="122"
        font-family="system-ui,-apple-system,sans-serif"
        font-size="13.5" font-weight="600" fill="#38BDF8" fill-opacity="0.9" letter-spacing="1.8">AI ENGINEER &#8226; SOFTWARE DEVELOPER &#8226; MACHINE LEARNING</text>

  <!-- Tagline -->
  <text x="80" y="158"
        font-family="system-ui,-apple-system,sans-serif"
        font-size="19.5" font-weight="300" fill="#CBD5E1" fill-opacity="0.85" letter-spacing="0.3">Engineering intelligent software</text>
  <text x="80" y="184"
        font-family="system-ui,-apple-system,sans-serif"
        font-size="19.5" font-weight="300" fill="#CBD5E1" fill-opacity="0.85" letter-spacing="0.3">that transforms data into</text>
  <text x="80" y="210"
        font-family="system-ui,-apple-system,sans-serif"
        font-size="19.5" font-weight="700" fill="url(#accentGrad)" letter-spacing="0.3">real-world impact.</text>

  <!-- ── Achievement Ribbon ── -->
  <g transform="translate(80, 226)">
    <rect x="0" y="0" width="665" height="28" rx="7"
          fill="#38BDF8" fill-opacity="0.04"
          stroke="#38BDF8" stroke-opacity="0.13" stroke-width="1"/>
    <!-- Trophy icon -->
    <g transform="translate(10,6)" stroke="#38BDF8" stroke-opacity="0.65" stroke-width="1.1" stroke-linecap="round" stroke-linejoin="round" fill="none">
      <path d="M2.5 2 H9.5 V5.5 C9.5 7.5 8 9 6 9 C4 9 2.5 7.5 2.5 5.5 Z"/>
      <path d="M1 3.5 C1 2.5 2.5 2.5 2.5 4.5"/>
      <path d="M11 3.5 C11 2.5 9.5 2.5 9.5 4.5"/>
      <line x1="6" y1="9" x2="6" y2="12"/>
      <line x1="3.5" y1="12" x2="8.5" y2="12"/>
    </g>
    <text x="32" y="18.5"
          font-family="system-ui,-apple-system,sans-serif"
          font-size="11" font-weight="500" fill="#CBD5E1" fill-opacity="0.72" letter-spacing="0.5">
      Google Cloud Arcade Champion Tier  &#8226;  NPTEL Silver Medal  &#8226;  Top 10 State-Level Hackathon Finalist
    </text>
  </g>

  <!-- ── Tech Chips ── -->
  <g font-family="system-ui,-apple-system,sans-serif" font-size="11" font-weight="500" fill="#CBD5E1">

    <!-- ROW 1  y=264 -->
    <!-- Python -->
    <g transform="translate(80,264)">
      <rect width="88" height="26" rx="13" fill="url(#chipGrad)" stroke="#38BDF8" stroke-opacity="0.14" stroke-width="1"/>
      <g transform="translate(8,7)" fill="#38BDF8">
        <path d="M6 0.5A2.5 2.5 0 0 0 3.5 3V4.5H6V5H2.5A2 2 0 0 0 0.5 7A2 2 0 0 0 2.5 9H3.5V8A2 2 0 0 1 5.5 6H7.5A2 2 0 0 0 9.5 4V3A2.5 2.5 0 0 0 7 0.5ZM6 11.5A2.5 2.5 0 0 0 8.5 9V7.5H6V7H9.5A2 2 0 0 0 11.5 5A2 2 0 0 0 9.5 3H8.5V4A2 2 0 0 1 6.5 6H4.5A2 2 0 0 0 2.5 8V9A2.5 2.5 0 0 0 5 11.5Z"/>
      </g>
      <text x="25" y="17">Python</text>
    </g>
    <!-- Java -->
    <g transform="translate(178,264)">
      <rect width="72" height="26" rx="13" fill="url(#chipGrad)" stroke="#38BDF8" stroke-opacity="0.14" stroke-width="1"/>
      <g transform="translate(8,7)" fill="none" stroke="#38BDF8" stroke-width="1.2" stroke-linecap="round" stroke-linejoin="round">
        <path d="M2.5 8.5C2.5 10 4 11 6 11C8 11 9.5 10 9.5 8.5V3.5H2.5Z"/>
        <path d="M9.5 5.5C10.5 5.5 11 6 11 7C11 8 10.5 8.5 9.5 8.5"/>
        <path d="M4.5 1Q5.2 2.5 4.5 3M7.5 1Q8.2 2.5 7.5 3"/>
      </g>
      <text x="25" y="17">Java</text>
    </g>
    <!-- FastAPI -->
    <g transform="translate(260,264)">
      <rect width="88" height="26" rx="13" fill="url(#chipGrad)" stroke="#38BDF8" stroke-opacity="0.14" stroke-width="1"/>
      <g transform="translate(8,7)" fill="#38BDF8">
        <path d="M7 0.5L1.5 6.5H5L3.5 11.5L9.5 5.5H6Z"/>
      </g>
      <text x="25" y="17">FastAPI</text>
    </g>
    <!-- React -->
    <g transform="translate(358,264)">
      <rect width="78" height="26" rx="13" fill="url(#chipGrad)" stroke="#38BDF8" stroke-opacity="0.14" stroke-width="1"/>
      <g transform="translate(8,7)" fill="none" stroke="#38BDF8" stroke-width="1">
        <ellipse cx="6" cy="6" rx="5.5" ry="1.8" transform="rotate(30 6 6)"/>
        <ellipse cx="6" cy="6" rx="5.5" ry="1.8" transform="rotate(90 6 6)"/>
        <ellipse cx="6" cy="6" rx="5.5" ry="1.8" transform="rotate(150 6 6)"/>
        <circle cx="6" cy="6" r="1.1" fill="#38BDF8"/>
      </g>
      <text x="25" y="17">React</text>
    </g>
    <!-- SQL -->
    <g transform="translate(446,264)">
      <rect width="66" height="26" rx="13" fill="url(#chipGrad)" stroke="#38BDF8" stroke-opacity="0.14" stroke-width="1"/>
      <g transform="translate(8,7)" fill="none" stroke="#38BDF8" stroke-width="1.1" stroke-linecap="round" stroke-linejoin="round">
        <ellipse cx="6" cy="2.8" rx="4.5" ry="1.7"/>
        <path d="M1.5 2.8V6.5C1.5 7.5 3.5 8 6 8C8.5 8 10.5 7.5 10.5 6.5V2.8"/>
        <path d="M1.5 6.5V10C1.5 11 3.5 11.5 6 11.5C8.5 11.5 10.5 11 10.5 10V6.5"/>
      </g>
      <text x="25" y="17">SQL</text>
    </g>
    <!-- Git -->
    <g transform="translate(522,264)">
      <rect width="62" height="26" rx="13" fill="url(#chipGrad)" stroke="#38BDF8" stroke-opacity="0.14" stroke-width="1"/>
      <g transform="translate(8,7)" fill="none" stroke="#38BDF8" stroke-width="1.2">
        <circle cx="3.5" cy="3.5" r="1.4"/>
        <circle cx="3.5" cy="8.5" r="1.4"/>
        <circle cx="8.5" cy="6"   r="1.4"/>
        <path d="M3.5 4.9V7.1M3.5 4.9Q5.5 4.9 8.5 6"/>
      </g>
      <text x="25" y="17">Git</text>
    </g>
    <!-- AI -->
    <g transform="translate(594,264)">
      <rect width="52" height="26" rx="13" fill="url(#chipGrad)" stroke="#38BDF8" stroke-opacity="0.14" stroke-width="1"/>
      <g transform="translate(8,7)" fill="none" stroke="#38BDF8" stroke-width="1.1">
        <rect x="2.5" y="2.5" width="7" height="7" rx="1.2"/>
        <path d="M0.8 4.5H2.5M0.8 7.5H2.5M9.5 4.5H11.2M9.5 7.5H11.2M4.5 0.8V2.5M7.5 0.8V2.5M4.5 9.5V11.2M7.5 9.5V11.2"/>
      </g>
      <text x="25" y="17">AI</text>
    </g>

    <!-- ROW 2  y=299 -->
    <!-- LangChain -->
    <g transform="translate(80,299)">
      <rect width="108" height="26" rx="13" fill="url(#chipGrad)" stroke="#818CF8" stroke-opacity="0.18" stroke-width="1"/>
      <g transform="translate(8,7)" fill="#818CF8">
        <rect x="0.5" y="2" width="5.5" height="2.8" rx="1.4" transform="rotate(-42 3 3.4)"/>
        <rect x="5" y="6" width="5.5" height="2.8" rx="1.4" transform="rotate(-42 7.75 7.4)"/>
      </g>
      <text x="25" y="17" fill="#C4B5FD">LangChain</text>
    </g>
    <!-- LangGraph -->
    <g transform="translate(198,299)">
      <rect width="110" height="26" rx="13" fill="url(#chipGrad)" stroke="#818CF8" stroke-opacity="0.18" stroke-width="1"/>
      <g transform="translate(8,7)" fill="none" stroke="#818CF8" stroke-width="1.2">
        <circle cx="3" cy="9" r="1.5" fill="#818CF8"/>
        <circle cx="9" cy="3" r="1.5" fill="#818CF8"/>
        <circle cx="9" cy="9" r="1.5" fill="#818CF8"/>
        <path d="M4.5 7.5L7.5 4.5M4.5 9H7.5M9 4.5V7.5"/>
      </g>
      <text x="25" y="17" fill="#C4B5FD">LangGraph</text>
    </g>
    <!-- Docker -->
    <g transform="translate(318,299)">
      <rect width="88" height="26" rx="13" fill="url(#chipGrad)" stroke="#38BDF8" stroke-opacity="0.14" stroke-width="1"/>
      <g transform="translate(8,7)" fill="#38BDF8">
        <rect x="0.5" y="6.5" width="2.5" height="2.5" rx="0.5"/>
        <rect x="4"   y="6.5" width="2.5" height="2.5" rx="0.5"/>
        <rect x="7.5" y="6.5" width="2.5" height="2.5" rx="0.5"/>
        <rect x="2.2" y="3.5" width="2.5" height="2.5" rx="0.5"/>
        <rect x="5.8" y="3.5" width="2.5" height="2.5" rx="0.5"/>
        <path d="M0.5 10C3 10.8 8 10.8 11.5 10" stroke="#38BDF8" stroke-width="0.9" fill="none"/>
      </g>
      <text x="25" y="17">Docker</text>
    </g>
    <!-- MongoDB -->
    <g transform="translate(416,299)">
      <rect width="95" height="26" rx="13" fill="url(#chipGrad)" stroke="#38BDF8" stroke-opacity="0.14" stroke-width="1"/>
      <g transform="translate(8,7)" fill="none" stroke="#38BDF8" stroke-width="1.2">
        <path d="M6 1C6 1 9.5 3.5 9.5 6.5C9.5 9 8 10.5 6 11.2C4 10.5 2.5 9 2.5 6.5C2.5 3.5 6 1Z" fill="#38BDF8" fill-opacity="0.18"/>
        <line x1="6" y1="1" x2="6" y2="11.2"/>
      </g>
      <text x="25" y="17">MongoDB</text>
    </g>
    <!-- NLP -->
    <g transform="translate(521,299)">
      <rect width="68" height="26" rx="13" fill="url(#chipGrad)" stroke="#38BDF8" stroke-opacity="0.14" stroke-width="1"/>
      <g transform="translate(8,7)" fill="none" stroke="#38BDF8" stroke-width="1.2">
        <path d="M1 6A4.5 4.5 0 0 1 11 6C11 8.2 8.5 9.8 6 9.8L3.5 11.2V9.8A4.5 4.5 0 0 1 1 6Z"/>
        <line x1="3.5" y1="5" x2="8.5" y2="5"/>
        <line x1="3.5" y1="7" x2="6.5" y2="7"/>
      </g>
      <text x="25" y="17">NLP</text>
    </g>
    <!-- GitHub -->
    <g transform="translate(599,299)">
      <rect width="90" height="26" rx="13" fill="url(#chipGrad)" stroke="#38BDF8" stroke-opacity="0.14" stroke-width="1"/>
      <g transform="translate(8,7)" fill="#38BDF8">
        <path d="M6 0.5C2.7 0.5 0 3.2 0 6.5C0 9.1 1.7 11.4 4.1 12.2C4.4 12.3 4.5 12.1 4.5 11.9V10.4C2.8 10.7 2.5 9.7 2.5 9.7C2.2 9.1 1.8 9 1.8 9C1.2 8.6 1.8 8.6 1.8 8.6C2.4 8.7 2.7 9.2 2.7 9.2C3.3 10.1 4.1 9.9 4.4 9.7C4.5 9.3 4.7 9 4.8 8.8C3.5 8.7 2.1 8.2 2.1 6C2.1 5.4 2.3 4.9 2.7 4.5C2.6 4.3 2.4 3.8 2.7 3.1C3.2 2.9 4.3 3.7 4.3 3.7C4.8 3.5 5.4 3.4 6 3.4C6.6 3.4 7.2 3.5 7.7 3.7C8.8 2.9 9.3 3.1 9.3 3.1C9.6 3.8 9.4 4.3 9.3 4.5C9.7 4.9 9.9 5.4 9.9 6C9.9 8.2 8.5 8.7 7.2 8.8C7.4 9 7.6 9.4 7.6 10V11.9C7.6 12.1 7.7 12.3 8 12.2C10.3 11.4 12 9.1 12 6.5C12 3.2 9.3 0.5 6 0.5Z"/>
      </g>
      <text x="25" y="17">GitHub</text>
    </g>

    <!-- ROW 3  y=334 -->
    <!-- Machine Learning -->
    <g transform="translate(80,334)">
      <rect width="148" height="26" rx="13" fill="url(#chipGrad)" stroke="#818CF8" stroke-opacity="0.18" stroke-width="1"/>
      <g transform="translate(8,7)" fill="none" stroke="#818CF8" stroke-width="1.2">
        <circle cx="2.5" cy="6"   r="1.2" fill="#818CF8"/>
        <circle cx="6"   cy="2.8" r="1.2" fill="#818CF8"/>
        <circle cx="6"   cy="9.2" r="1.2" fill="#818CF8"/>
        <circle cx="9.5" cy="6"   r="1.2" fill="#818CF8"/>
        <path d="M3.5 5.4L5 3M3.5 6.6L5 9M7 3L8.5 5.4M7 9L8.5 6.6"/>
      </g>
      <text x="25" y="17" fill="#C4B5FD">Machine Learning</text>
    </g>
    <!-- PostgreSQL -->
    <g transform="translate(238,334)">
      <rect width="112" height="26" rx="13" fill="url(#chipGrad)" stroke="#38BDF8" stroke-opacity="0.14" stroke-width="1"/>
      <g transform="translate(8,7)" fill="none" stroke="#38BDF8" stroke-width="1.2">
        <path d="M6 1.5C3 1.5 2 4 2 6C2 9.5 5 10.5 6 10.5C7 10.5 10 9.5 10 6C10 4 9 1.5 6 1.5Z"/>
        <line x1="2" y1="5"   x2="10" y2="5"/>
        <line x1="6" y1="1.5" x2="6"  y2="10.5"/>
      </g>
      <text x="25" y="17">PostgreSQL</text>
    </g>
    <!-- Data Science -->
    <g transform="translate(360,334)">
      <rect width="118" height="26" rx="13" fill="url(#chipGrad)" stroke="#38BDF8" stroke-opacity="0.14" stroke-width="1"/>
      <g transform="translate(8,7)" fill="none" stroke="#38BDF8" stroke-width="1.1" stroke-linecap="round" stroke-linejoin="round">
        <rect x="1"   y="8"   width="2" height="3.5" rx="0.5" fill="#38BDF8" fill-opacity="0.25"/>
        <rect x="4.5" y="5.5" width="2" height="6"   rx="0.5" fill="#38BDF8" fill-opacity="0.25"/>
        <rect x="8"   y="3"   width="2" height="8.5" rx="0.5" fill="#38BDF8" fill-opacity="0.25"/>
        <polyline points="2,7.5 5.5,4.8 9,2.5"/>
      </g>
      <text x="25" y="17">Data Science</text>
    </g>

  </g>

  <!-- ╔══════════════════════════════════════╗ -->
  <!-- ║           METRICS CARDS             ║ -->
  <!-- ╚══════════════════════════════════════╝ -->

  <g transform="translate(80,373)">

    <!-- Card 1 — 600+ -->
    <g>
      <rect width="206" height="88" rx="14"
            fill="url(#cardGrad)"
            stroke="#38BDF8" stroke-opacity="0.13" stroke-width="1"/>
      <!-- Glass shimmer -->
      <rect x="0" y="0" width="206" height="88" rx="14" fill="url(#shimmerGrad)" fill-opacity="1">
        <animate attributeName="x" values="-206;206;-206" dur="6s" repeatCount="indefinite"/>
      </rect>
      <text x="18" y="40"
            font-family="system-ui,-apple-system,sans-serif"
            font-size="30" font-weight="700" fill="#F8FAFC">600+</text>
      <text x="18" y="64"
            font-family="system-ui,-apple-system,sans-serif"
            font-size="12.5" font-weight="500" fill="#64748B">Coding Problems</text>
      <!-- Accent dot -->
      <circle cx="185" cy="16" r="3" fill="#38BDF8" fill-opacity="0.5">
        <animate attributeName="opacity" values="0.5;1;0.5" dur="3s" repeatCount="indefinite"/>
      </circle>
    </g>

    <!-- Card 2 — 25+ -->
    <g transform="translate(224,0)">
      <rect width="206" height="88" rx="14"
            fill="url(#cardGrad)"
            stroke="#38BDF8" stroke-opacity="0.13" stroke-width="1"/>
      <rect x="0" y="0" width="206" height="88" rx="14" fill="url(#shimmerGrad)" fill-opacity="1">
        <animate attributeName="x" values="-206;206;-206" dur="7s" repeatCount="indefinite"/>
      </rect>
      <text x="18" y="40"
            font-family="system-ui,-apple-system,sans-serif"
            font-size="30" font-weight="700" fill="#F8FAFC">25+</text>
      <text x="18" y="64"
            font-family="system-ui,-apple-system,sans-serif"
            font-size="12.5" font-weight="500" fill="#64748B">Projects</text>
      <circle cx="185" cy="16" r="3" fill="#818CF8" fill-opacity="0.5">
        <animate attributeName="opacity" values="0.5;1;0.5" dur="4s" repeatCount="indefinite"/>
      </circle>
    </g>

    <!-- Card 3 — 4 -->
    <g transform="translate(448,0)">
      <rect width="206" height="88" rx="14"
            fill="url(#cardGrad)"
            stroke="#38BDF8" stroke-opacity="0.13" stroke-width="1"/>
      <rect x="0" y="0" width="206" height="88" rx="14" fill="url(#shimmerGrad)" fill-opacity="1">
        <animate attributeName="x" values="-206;206;-206" dur="8s" repeatCount="indefinite"/>
      </rect>
      <text x="18" y="40"
            font-family="system-ui,-apple-system,sans-serif"
            font-size="30" font-weight="700" fill="#F8FAFC">4</text>
      <text x="18" y="64"
            font-family="system-ui,-apple-system,sans-serif"
            font-size="12.5" font-weight="500" fill="#64748B">Industry Internships</text>
      <circle cx="185" cy="16" r="3" fill="#38BDF8" fill-opacity="0.5">
        <animate attributeName="opacity" values="0.5;1;0.5" dur="5s" repeatCount="indefinite"/>
      </circle>
    </g>

  </g>

  <!-- ╔══════════════════════════════════════╗ -->
  <!-- ║        macOS TERMINAL WINDOW         ║ -->
  <!-- ╚══════════════════════════════════════╝ -->

  <g filter="url(#termShadow)">

    <!-- Window glass background -->
    <rect x="782" y="62" width="736" height="376" rx="12"
          fill="url(#termGrad)"
          stroke="#1E3354" stroke-opacity="0.7" stroke-width="1.2"/>

    <!-- Soft inner glow top edge -->
    <rect x="782" y="62" width="736" height="2" rx="0"
          fill="#38BDF8" fill-opacity="0.08"/>

    <!-- Title bar -->
    <rect x="782" y="62" width="736" height="40" rx="0"
          fill="url(#termBarGrad)"/>
    <rect x="782" y="62" width="736" height="40"
          fill="#FFFFFF" fill-opacity="0.015"/>
    <!-- Title bar top rounded corners -->
    <path d="M782 74C782 67.4 787.4 62 794 62H1506C1512.6 62 1518 67.4 1518 74V102H782Z"
          fill="url(#termBarGrad)"/>

    <!-- Traffic lights -->
    <circle cx="808" cy="82" r="6.5" fill="#FF5F56"/>
    <circle cx="830" cy="82" r="6.5" fill="#FEBC2E"/>
    <circle cx="852" cy="82" r="6.5" fill="#28C840"/>

    <!-- Inner circle accents on traffic lights -->
    <circle cx="808" cy="82" r="3" fill="#C0392B" fill-opacity="0.4"/>
    <circle cx="830" cy="82" r="3" fill="#C07B00" fill-opacity="0.4"/>
    <circle cx="852" cy="82" r="3" fill="#007C1E" fill-opacity="0.4"/>

    <!-- Window title -->
    <text x="1150" y="86"
          font-family="SFMono-Regular,Consolas,Menlo,monospace"
          font-size="12.5" font-weight="500" fill="#4A6FA5"
          text-anchor="middle" letter-spacing="0.5">avinash@github:~</text>

    <!-- Title bar separator -->
    <line x1="782" y1="102" x2="1518" y2="102"
          stroke="#1E3354" stroke-opacity="0.6" stroke-width="1"/>

    <!-- Clipped terminal body content -->
    <g clip-path="url(#termClip)">

      <!-- Subtle scanline bands -->
      <rect x="782" y="102" width="736" height="336" fill="#000000" fill-opacity="0.05"/>

      <!-- Terminal content -->
      <g font-family="SFMono-Regular,Consolas,Menlo,monospace" font-size="14" font-weight="400">

        <!-- Prompt line -->
        <text x="812" y="136" fill="#38BDF8" font-weight="600">$
          <tspan fill="#E2E8F0"> whoami</tspan>
        </text>

        <!-- Spacer -->
        <text x="812" y="166" fill="#F8FAFC" font-weight="600" font-size="15">K. Avinash</text>
        <text x="812" y="196" fill="#38BDF8">AI Engineer</text>
        <text x="812" y="220" fill="#94A3B8">Software Developer</text>
        <text x="812" y="244" fill="#CBD5E1">Building Intelligent Solutions...</text>

        <!-- Second prompt -->
        <text x="812" y="278" fill="#38BDF8" font-weight="600">$</text>

        <!-- GitHub info line -->
        <text x="812" y="312" fill="#64748B">
          <tspan fill="#F59E0B" fill-opacity="0.85">github</tspan>
          <tspan fill="#64748B"> : </tspan>
          <tspan fill="#38BDF8">github.com/Kaja-avinash</tspan>
        </text>

        <!-- Third prompt -->
        <text x="812" y="350" fill="#38BDF8" font-weight="600">$</text>

      </g>

      <!-- Blinking block cursor -->
      <rect x="832" y="335" width="9" height="17" rx="1" fill="#38BDF8">
        <animate attributeName="opacity" values="1;1;0;0;1" dur="1.1s" repeatCount="indefinite"/>
      </rect>

      <!-- Bottom glow strip -->
      <rect x="782" y="408" width="736" height="30" fill="#000000" fill-opacity="0.25"/>

    </g>

    <!-- Terminal shimmer glide -->
    <rect x="782" y="102" width="736" height="336" fill="url(#shimmerGrad)" fill-opacity="0.8">
      <animate attributeName="x" values="782;1518;782" dur="10s" repeatCount="indefinite"/>
    </rect>

  </g>

  <!-- ╔══════════════════════════════════════╗ -->
  <!-- ║      CONTRIBUTION HEATMAP (BL)       ║ -->
  <!-- ╚══════════════════════════════════════╝ -->

  <g transform="translate(80,476)" opacity="0.5">
    <!-- mini dot contribution strip just above bottom -->
  </g>

  <!-- ╔══════════════════════════════════════╗ -->
  <!-- ║        HEATMAP CORNER DETAIL         ║ -->
  <!-- ╚══════════════════════════════════════╝ -->

  <g transform="translate(1378,452)" opacity="0.85">
    <!-- Col 1 -->
    <rect x="0"  y="0"  width="7" height="7" rx="1.5" fill="#1E293B"/>
    <rect x="0"  y="10" width="7" height="7" rx="1.5" fill="#0E4429"/>
    <rect x="0"  y="20" width="7" height="7" rx="1.5" fill="#26A641"/>
    <rect x="0"  y="30" width="7" height="7" rx="1.5" fill="#1E293B"/>
    <!-- Col 2 -->
    <rect x="10" y="0"  width="7" height="7" rx="1.5" fill="#006D32"/>
    <rect x="10" y="10" width="7" height="7" rx="1.5" fill="#39D353"/>
    <rect x="10" y="20" width="7" height="7" rx="1.5" fill="#1E293B"/>
    <rect x="10" y="30" width="7" height="7" rx="1.5" fill="#0E4429"/>
    <!-- Col 3 -->
    <rect x="20" y="0"  width="7" height="7" rx="1.5" fill="#1E293B"/>
    <rect x="20" y="10" width="7" height="7" rx="1.5" fill="#26A641"/>
    <rect x="20" y="20" width="7" height="7" rx="1.5" fill="#006D32"/>
    <rect x="20" y="30" width="7" height="7" rx="1.5" fill="#39D353"/>
    <!-- Col 4 -->
    <rect x="30" y="0"  width="7" height="7" rx="1.5" fill="#39D353"/>
    <rect x="30" y="10" width="7" height="7" rx="1.5" fill="#1E293B"/>
    <rect x="30" y="20" width="7" height="7" rx="1.5" fill="#0E4429"/>
    <rect x="30" y="30" width="7" height="7" rx="1.5" fill="#26A641"/>
    <!-- Col 5 -->
    <rect x="40" y="0"  width="7" height="7" rx="1.5" fill="#1E293B"/>
    <rect x="40" y="10" width="7" height="7" rx="1.5" fill="#006D32"/>
    <rect x="40" y="20" width="7" height="7" rx="1.5" fill="#1E293B"/>
    <rect x="40" y="30" width="7" height="7" rx="1.5" fill="#39D353"/>
    <!-- Col 6 -->
    <rect x="50" y="0"  width="7" height="7" rx="1.5" fill="#26A641"/>
    <rect x="50" y="10" width="7" height="7" rx="1.5" fill="#1E293B"/>
    <rect x="50" y="20" width="7" height="7" rx="1.5" fill="#39D353"/>
    <rect x="50" y="30" width="7" height="7" rx="1.5" fill="#006D32"/>
    <!-- Col 7 -->
    <rect x="60" y="0"  width="7" height="7" rx="1.5" fill="#1E293B"/>
    <rect x="60" y="10" width="7" height="7" rx="1.5" fill="#0E4429"/>
    <rect x="60" y="20" width="7" height="7" rx="1.5" fill="#26A641"/>
    <rect x="60" y="30" width="7" height="7" rx="1.5" fill="#1E293B"/>
    <!-- Col 8 -->
    <rect x="70" y="0"  width="7" height="7" rx="1.5" fill="#006D32"/>
    <rect x="70" y="10" width="7" height="7" rx="1.5" fill="#39D353"/>
    <rect x="70" y="20" width="7" height="7" rx="1.5" fill="#1E293B"/>
    <rect x="70" y="30" width="7" height="7" rx="1.5" fill="#0E4429"/>
    <!-- Col 9 -->
    <rect x="80" y="0"  width="7" height="7" rx="1.5" fill="#1E293B"/>
    <rect x="80" y="10" width="7" height="7" rx="1.5" fill="#26A641"/>
    <rect x="80" y="20" width="7" height="7" rx="1.5" fill="#39D353"/>
    <rect x="80" y="30" width="7" height="7" rx="1.5" fill="#1E293B"/>
    <!-- Col 10 -->
    <rect x="90" y="0"  width="7" height="7" rx="1.5" fill="#0E4429"/>
    <rect x="90" y="10" width="7" height="7" rx="1.5" fill="#1E293B"/>
    <rect x="90" y="20" width="7" height="7" rx="1.5" fill="#006D32"/>
    <rect x="90" y="30" width="7" height="7" rx="1.5" fill="#39D353"/>
  </g>

  <!-- ╔══════════════════════════════════════╗ -->
  <!-- ║      GLOWING TINY DOTS (AMBIENT)     ║ -->
  <!-- ╚══════════════════════════════════════╝ -->

  <g filter="url(#glowFilt)">
    <circle cx="720" cy="42"  r="1.8" fill="#38BDF8" fill-opacity="0.55">
      <animate attributeName="opacity" values="0.55;0.9;0.55" dur="4s"  repeatCount="indefinite"/>
    </circle>
    <circle cx="690" cy="460" r="1.5" fill="#818CF8" fill-opacity="0.5">
      <animate attributeName="opacity" values="0.5;0.85;0.5" dur="5s"  repeatCount="indefinite"/>
    </circle>
    <circle cx="760" cy="250" r="1.2" fill="#38BDF8" fill-opacity="0.4">
      <animate attributeName="opacity" values="0.4;0.75;0.4" dur="6.5s" repeatCount="indefinite"/>
    </circle>
    <circle cx="740" cy="135" r="1.5" fill="#818CF8" fill-opacity="0.45">
      <animate attributeName="opacity" values="0.45;0.8;0.45" dur="3.5s" repeatCount="indefinite"/>
    </circle>
    <circle cx="755" cy="380" r="1"   fill="#38BDF8" fill-opacity="0.5">
      <animate attributeName="opacity" values="0.5;0.9;0.5" dur="7s"  repeatCount="indefinite"/>
    </circle>
  </g>

  <!-- ╔══════════════════════════════════════╗ -->
  <!-- ║   VERTICAL DIVIDER (left|right)      ║ -->
  <!-- ╚══════════════════════════════════════╝ -->

  <line x1="768" y1="60" x2="768" y2="460"
        stroke="#38BDF8" stroke-opacity="0.06" stroke-width="1" stroke-dasharray="4,8"/>

</svg>
